# xmcd
#
# Track frame offsets: 
#        150
#        14089
#        27584
#        41676
#        54870
#        68386
#        81650
#        96803
#        111943
#        126308
#        141064
#        154659
#        169075
#        183130
#        197215
#        212209
#
# Disc length: 3015 seconds
#
# Revision: 0
# Processed by: cddbd v1.5.2PL0 Copyright (c) Steve Scherf et al.
# Submitted via: ExactAudioCopyFreeDBPlugin 1.0
#
DISCID=e20bc510
DTITLE=Blind Willie Johnson - Complete Recorded Titles Volume 2 (11th 
DTITLE=December 1929 - 20th April 1930)
DYEAR=1900
DGENRE=Blues
TTITLE0=You'll Need Somebody On Your Bond
TTITLE1=When The War Was On
TTITLE2=Praise God I'm Satisfied
TTITLE3=Take Your Burden To The Lord And Leave It There
TTITLE4=Take Your Stand
TTITLE5=God Moves On The Water
TTITLE6=Can't Nobody Hide From God
TTITLE7=If It Had Not Been For Jesus
TTITLE8=Go With Me To That Land
TTITLE9=The Rain Don't Fall On Me
TTITLE10=Trouble Will Soon Be Over
TTITLE11=The Soul Of Man
TTITLE12=Everybody Ought To Treat A Stranger Right
TTITLE13=Church, I'm Fully Saved Today
TTITLE14=John The Revelator
TTITLE15=You're Gonna Need Somebody On Your Bond
EXTD=
EXTT0=
EXTT1=
EXTT2=
EXTT3=
EXTT4=
EXTT5=
EXTT6=
EXTT7=
EXTT8=
EXTT9=
EXTT10=
EXTT11=
EXTT12=
EXTT13=
EXTT14=
EXTT15=
PLAYORDER=
